<?xml version="1.0" encoding="utf-8"?>
<svg xmlns="http://www.w3.org/2000/svg" xmlns:xlink="http://www.w3.org/1999/xlink" width="600" height="400" viewBox="0 0 2400 1600">
<defs>
  <clipPath id="clip020">
    <rect x="0" y="0" width="2400" height="1600"/>
  </clipPath>
</defs>
<path clip-path="url(#clip020)" d="M0 1600 L2400 1600 L2400 0 L0 0  Z" fill="#ffffff" fill-rule="evenodd" fill-opacity="1"/>
<defs>
  <clipPath id="clip021">
    <rect x="480" y="0" width="1681" height="1600"/>
  </clipPath>
</defs>
<path clip-path="url(#clip020)" d="M205.121 1423.18 L2352.76 1423.18 L2352.76 47.2441 L205.121 47.2441  Z" fill="#ffffff" fill-rule="evenodd" fill-opacity="1"/>
<defs>
  <clipPath id="clip022">
    <rect x="205" y="47" width="2149" height="1377"/>
  </clipPath>
</defs>
<polyline clip-path="url(#clip022)" style="stroke:#000000; stroke-linecap:round; stroke-linejoin:round; stroke-width:2; stroke-opacity:0.1; fill:none" points="265.903,1423.18 265.903,47.2441 "/>
<polyline clip-path="url(#clip022)" style="stroke:#000000; stroke-linecap:round; stroke-linejoin:round; stroke-width:2; stroke-opacity:0.1; fill:none" points="627.701,1423.18 627.701,47.2441 "/>
<polyline clip-path="url(#clip022)" style="stroke:#000000; stroke-linecap:round; stroke-linejoin:round; stroke-width:2; stroke-opacity:0.1; fill:none" points="989.5,1423.18 989.5,47.2441 "/>
<polyline clip-path="url(#clip022)" style="stroke:#000000; stroke-linecap:round; stroke-linejoin:round; stroke-width:2; stroke-opacity:0.1; fill:none" points="1351.3,1423.18 1351.3,47.2441 "/>
<polyline clip-path="url(#clip022)" style="stroke:#000000; stroke-linecap:round; stroke-linejoin:round; stroke-width:2; stroke-opacity:0.1; fill:none" points="1713.1,1423.18 1713.1,47.2441 "/>
<polyline clip-path="url(#clip022)" style="stroke:#000000; stroke-linecap:round; stroke-linejoin:round; stroke-width:2; stroke-opacity:0.1; fill:none" points="2074.89,1423.18 2074.89,47.2441 "/>
<polyline clip-path="url(#clip020)" style="stroke:#000000; stroke-linecap:round; stroke-linejoin:round; stroke-width:4; stroke-opacity:1; fill:none" points="205.121,1423.18 2352.76,1423.18 "/>
<polyline clip-path="url(#clip020)" style="stroke:#000000; stroke-linecap:round; stroke-linejoin:round; stroke-width:4; stroke-opacity:1; fill:none" points="265.903,1423.18 265.903,1404.28 "/>
<polyline clip-path="url(#clip020)" style="stroke:#000000; stroke-linecap:round; stroke-linejoin:round; stroke-width:4; stroke-opacity:1; fill:none" points="627.701,1423.18 627.701,1404.28 "/>
<polyline clip-path="url(#clip020)" style="stroke:#000000; stroke-linecap:round; stroke-linejoin:round; stroke-width:4; stroke-opacity:1; fill:none" points="989.5,1423.18 989.5,1404.28 "/>
<polyline clip-path="url(#clip020)" style="stroke:#000000; stroke-linecap:round; stroke-linejoin:round; stroke-width:4; stroke-opacity:1; fill:none" points="1351.3,1423.18 1351.3,1404.28 "/>
<polyline clip-path="url(#clip020)" style="stroke:#000000; stroke-linecap:round; stroke-linejoin:round; stroke-width:4; stroke-opacity:1; fill:none" points="1713.1,1423.18 1713.1,1404.28 "/>
<polyline clip-path="url(#clip020)" style="stroke:#000000; stroke-linecap:round; stroke-linejoin:round; stroke-width:4; stroke-opacity:1; fill:none" points="2074.89,1423.18 2074.89,1404.28 "/>
<path clip-path="url(#clip020)" d="M243.287 1454.1 Q239.676 1454.1 237.848 1457.66 Q236.042 1461.2 236.042 1468.33 Q236.042 1475.44 237.848 1479.01 Q239.676 1482.55 243.287 1482.55 Q246.922 1482.55 248.727 1479.01 Q250.556 1475.44 250.556 1468.33 Q250.556 1461.2 248.727 1457.66 Q246.922 1454.1 243.287 1454.1 M243.287 1450.39 Q249.098 1450.39 252.153 1455 Q255.232 1459.58 255.232 1468.33 Q255.232 1477.06 252.153 1481.67 Q249.098 1486.25 243.287 1486.25 Q237.477 1486.25 234.399 1481.67 Q231.343 1477.06 231.343 1468.33 Q231.343 1459.58 234.399 1455 Q237.477 1450.39 243.287 1450.39 Z" fill="#000000" fill-rule="nonzero" fill-opacity="1" /><path clip-path="url(#clip020)" d="M263.449 1479.7 L268.334 1479.7 L268.334 1485.58 L263.449 1485.58 L263.449 1479.7 Z" fill="#000000" fill-rule="nonzero" fill-opacity="1" /><path clip-path="url(#clip020)" d="M288.519 1454.1 Q284.908 1454.1 283.079 1457.66 Q281.273 1461.2 281.273 1468.33 Q281.273 1475.44 283.079 1479.01 Q284.908 1482.55 288.519 1482.55 Q292.153 1482.55 293.959 1479.01 Q295.787 1475.44 295.787 1468.33 Q295.787 1461.2 293.959 1457.66 Q292.153 1454.1 288.519 1454.1 M288.519 1450.39 Q294.329 1450.39 297.384 1455 Q300.463 1459.58 300.463 1468.33 Q300.463 1477.06 297.384 1481.67 Q294.329 1486.25 288.519 1486.25 Q282.709 1486.25 279.63 1481.67 Q276.574 1477.06 276.574 1468.33 Q276.574 1459.58 279.63 1455 Q282.709 1450.39 288.519 1450.39 Z" fill="#000000" fill-rule="nonzero" fill-opacity="1" /><path clip-path="url(#clip020)" d="M599.438 1481.64 L615.757 1481.64 L615.757 1485.58 L593.813 1485.58 L593.813 1481.64 Q596.475 1478.89 601.058 1474.26 Q605.665 1469.61 606.845 1468.27 Q609.09 1465.74 609.97 1464.01 Q610.873 1462.25 610.873 1460.56 Q610.873 1457.8 608.928 1456.07 Q607.007 1454.33 603.905 1454.33 Q601.706 1454.33 599.253 1455.09 Q596.822 1455.86 594.044 1457.41 L594.044 1452.69 Q596.868 1451.55 599.322 1450.97 Q601.776 1450.39 603.813 1450.39 Q609.183 1450.39 612.377 1453.08 Q615.572 1455.77 615.572 1460.26 Q615.572 1462.39 614.762 1464.31 Q613.975 1466.2 611.868 1468.8 Q611.289 1469.47 608.188 1472.69 Q605.086 1475.88 599.438 1481.64 Z" fill="#000000" fill-rule="nonzero" fill-opacity="1" /><path clip-path="url(#clip020)" d="M625.572 1479.7 L630.456 1479.7 L630.456 1485.58 L625.572 1485.58 L625.572 1479.7 Z" fill="#000000" fill-rule="nonzero" fill-opacity="1" /><path clip-path="url(#clip020)" d="M640.687 1451.02 L659.044 1451.02 L659.044 1454.96 L644.97 1454.96 L644.97 1463.43 Q645.988 1463.08 647.007 1462.92 Q648.025 1462.73 649.044 1462.73 Q654.831 1462.73 658.211 1465.9 Q661.59 1469.08 661.59 1474.49 Q661.59 1480.07 658.118 1483.17 Q654.646 1486.25 648.326 1486.25 Q646.15 1486.25 643.882 1485.88 Q641.637 1485.51 639.229 1484.77 L639.229 1480.07 Q641.312 1481.2 643.535 1481.76 Q645.757 1482.32 648.234 1482.32 Q652.238 1482.32 654.576 1480.21 Q656.914 1478.1 656.914 1474.49 Q656.914 1470.88 654.576 1468.77 Q652.238 1466.67 648.234 1466.67 Q646.359 1466.67 644.484 1467.08 Q642.632 1467.5 640.687 1468.38 L640.687 1451.02 Z" fill="#000000" fill-rule="nonzero" fill-opacity="1" /><path clip-path="url(#clip020)" d="M956.664 1451.02 L975.021 1451.02 L975.021 1454.96 L960.947 1454.96 L960.947 1463.43 Q961.965 1463.08 962.984 1462.92 Q964.002 1462.73 965.021 1462.73 Q970.808 1462.73 974.187 1465.9 Q977.567 1469.08 977.567 1474.49 Q977.567 1480.07 974.095 1483.17 Q970.623 1486.25 964.303 1486.25 Q962.127 1486.25 959.859 1485.88 Q957.613 1485.51 955.206 1484.77 L955.206 1480.07 Q957.289 1481.2 959.512 1481.76 Q961.734 1482.32 964.211 1482.32 Q968.215 1482.32 970.553 1480.21 Q972.891 1478.1 972.891 1474.49 Q972.891 1470.88 970.553 1468.77 Q968.215 1466.67 964.211 1466.67 Q962.336 1466.67 960.461 1467.08 Q958.609 1467.5 956.664 1468.38 L956.664 1451.02 Z" fill="#000000" fill-rule="nonzero" fill-opacity="1" /><path clip-path="url(#clip020)" d="M986.78 1479.7 L991.664 1479.7 L991.664 1485.58 L986.78 1485.58 L986.78 1479.7 Z" fill="#000000" fill-rule="nonzero" fill-opacity="1" /><path clip-path="url(#clip020)" d="M1011.85 1454.1 Q1008.24 1454.1 1006.41 1457.66 Q1004.6 1461.2 1004.6 1468.33 Q1004.6 1475.44 1006.41 1479.01 Q1008.24 1482.55 1011.85 1482.55 Q1015.48 1482.55 1017.29 1479.01 Q1019.12 1475.44 1019.12 1468.33 Q1019.12 1461.2 1017.29 1457.66 Q1015.48 1454.1 1011.85 1454.1 M1011.85 1450.39 Q1017.66 1450.39 1020.71 1455 Q1023.79 1459.58 1023.79 1468.33 Q1023.79 1477.06 1020.71 1481.67 Q1017.66 1486.25 1011.85 1486.25 Q1006.04 1486.25 1002.96 1481.67 Q999.905 1477.06 999.905 1468.33 Q999.905 1459.58 1002.96 1455 Q1006.04 1450.39 1011.85 1450.39 Z" fill="#000000" fill-rule="nonzero" fill-opacity="1" /><path clip-path="url(#clip020)" d="M1317.62 1451.02 L1339.84 1451.02 L1339.84 1453.01 L1327.29 1485.58 L1322.41 1485.58 L1334.21 1454.96 L1317.62 1454.96 L1317.62 1451.02 Z" fill="#000000" fill-rule="nonzero" fill-opacity="1" /><path clip-path="url(#clip020)" d="M1348.96 1479.7 L1353.84 1479.7 L1353.84 1485.58 L1348.96 1485.58 L1348.96 1479.7 Z" fill="#000000" fill-rule="nonzero" fill-opacity="1" /><path clip-path="url(#clip020)" d="M1364.08 1451.02 L1382.43 1451.02 L1382.43 1454.96 L1368.36 1454.96 L1368.36 1463.43 Q1369.38 1463.08 1370.4 1462.92 Q1371.41 1462.73 1372.43 1462.73 Q1378.22 1462.73 1381.6 1465.9 Q1384.98 1469.08 1384.98 1474.49 Q1384.98 1480.07 1381.51 1483.17 Q1378.03 1486.25 1371.71 1486.25 Q1369.54 1486.25 1367.27 1485.88 Q1365.02 1485.51 1362.62 1484.77 L1362.62 1480.07 Q1364.7 1481.2 1366.92 1481.76 Q1369.15 1482.32 1371.62 1482.32 Q1375.63 1482.32 1377.96 1480.21 Q1380.3 1478.1 1380.3 1474.49 Q1380.3 1470.88 1377.96 1468.77 Q1375.63 1466.67 1371.62 1466.67 Q1369.75 1466.67 1367.87 1467.08 Q1366.02 1467.5 1364.08 1468.38 L1364.08 1451.02 Z" fill="#000000" fill-rule="nonzero" fill-opacity="1" /><path clip-path="url(#clip020)" d="M1665.17 1481.64 L1672.81 1481.64 L1672.81 1455.28 L1664.5 1456.95 L1664.5 1452.69 L1672.76 1451.02 L1677.44 1451.02 L1677.44 1481.64 L1685.08 1481.64 L1685.08 1485.58 L1665.17 1485.58 L1665.17 1481.64 Z" fill="#000000" fill-rule="nonzero" fill-opacity="1" /><path clip-path="url(#clip020)" d="M1704.52 1454.1 Q1700.91 1454.1 1699.08 1457.66 Q1697.27 1461.2 1697.27 1468.33 Q1697.27 1475.44 1699.08 1479.01 Q1700.91 1482.55 1704.52 1482.55 Q1708.15 1482.55 1709.96 1479.01 Q1711.79 1475.44 1711.79 1468.33 Q1711.79 1461.2 1709.96 1457.66 Q1708.15 1454.1 1704.52 1454.1 M1704.52 1450.39 Q1710.33 1450.39 1713.39 1455 Q1716.46 1459.58 1716.46 1468.33 Q1716.46 1477.06 1713.39 1481.67 Q1710.33 1486.25 1704.52 1486.25 Q1698.71 1486.25 1695.63 1481.67 Q1692.58 1477.06 1692.58 1468.33 Q1692.58 1459.58 1695.63 1455 Q1698.71 1450.39 1704.52 1450.39 Z" fill="#000000" fill-rule="nonzero" fill-opacity="1" /><path clip-path="url(#clip020)" d="M1724.68 1479.7 L1729.57 1479.7 L1729.57 1485.58 L1724.68 1485.58 L1724.68 1479.7 Z" fill="#000000" fill-rule="nonzero" fill-opacity="1" /><path clip-path="url(#clip020)" d="M1749.75 1454.1 Q1746.14 1454.1 1744.31 1457.66 Q1742.51 1461.2 1742.51 1468.33 Q1742.51 1475.44 1744.31 1479.01 Q1746.14 1482.55 1749.75 1482.55 Q1753.39 1482.55 1755.19 1479.01 Q1757.02 1475.44 1757.02 1468.33 Q1757.02 1461.2 1755.19 1457.66 Q1753.39 1454.1 1749.75 1454.1 M1749.75 1450.39 Q1755.56 1450.39 1758.62 1455 Q1761.7 1459.58 1761.7 1468.33 Q1761.7 1477.06 1758.62 1481.67 Q1755.56 1486.25 1749.75 1486.25 Q1743.94 1486.25 1740.86 1481.67 Q1737.81 1477.06 1737.81 1468.33 Q1737.81 1459.58 1740.86 1455 Q1743.94 1450.39 1749.75 1450.39 Z" fill="#000000" fill-rule="nonzero" fill-opacity="1" /><path clip-path="url(#clip020)" d="M2027.46 1481.64 L2035.1 1481.64 L2035.1 1455.28 L2026.79 1456.95 L2026.79 1452.69 L2035.06 1451.02 L2039.73 1451.02 L2039.73 1481.64 L2047.37 1481.64 L2047.37 1485.58 L2027.46 1485.58 L2027.46 1481.64 Z" fill="#000000" fill-rule="nonzero" fill-opacity="1" /><path clip-path="url(#clip020)" d="M2060.84 1481.64 L2077.16 1481.64 L2077.16 1485.58 L2055.22 1485.58 L2055.22 1481.64 Q2057.88 1478.89 2062.46 1474.26 Q2067.07 1469.61 2068.25 1468.27 Q2070.5 1465.74 2071.38 1464.01 Q2072.28 1462.25 2072.28 1460.56 Q2072.28 1457.8 2070.33 1456.07 Q2068.41 1454.33 2065.31 1454.33 Q2063.11 1454.33 2060.66 1455.09 Q2058.23 1455.86 2055.45 1457.41 L2055.45 1452.69 Q2058.27 1451.55 2060.73 1450.97 Q2063.18 1450.39 2065.22 1450.39 Q2070.59 1450.39 2073.78 1453.08 Q2076.98 1455.77 2076.98 1460.26 Q2076.98 1462.39 2076.17 1464.31 Q2075.38 1466.2 2073.27 1468.8 Q2072.7 1469.47 2069.59 1472.69 Q2066.49 1475.88 2060.84 1481.64 Z" fill="#000000" fill-rule="nonzero" fill-opacity="1" /><path clip-path="url(#clip020)" d="M2086.98 1479.7 L2091.86 1479.7 L2091.86 1485.58 L2086.98 1485.58 L2086.98 1479.7 Z" fill="#000000" fill-rule="nonzero" fill-opacity="1" /><path clip-path="url(#clip020)" d="M2102.09 1451.02 L2120.45 1451.02 L2120.45 1454.96 L2106.38 1454.96 L2106.38 1463.43 Q2107.39 1463.08 2108.41 1462.92 Q2109.43 1462.73 2110.45 1462.73 Q2116.24 1462.73 2119.62 1465.9 Q2123 1469.08 2123 1474.49 Q2123 1480.07 2119.52 1483.17 Q2116.05 1486.25 2109.73 1486.25 Q2107.56 1486.25 2105.29 1485.88 Q2103.04 1485.51 2100.64 1484.77 L2100.64 1480.07 Q2102.72 1481.2 2104.94 1481.76 Q2107.16 1482.32 2109.64 1482.32 Q2113.64 1482.32 2115.98 1480.21 Q2118.32 1478.1 2118.32 1474.49 Q2118.32 1470.88 2115.98 1468.77 Q2113.64 1466.67 2109.64 1466.67 Q2107.76 1466.67 2105.89 1467.08 Q2104.04 1467.5 2102.09 1468.38 L2102.09 1451.02 Z" fill="#000000" fill-rule="nonzero" fill-opacity="1" /><path clip-path="url(#clip020)" d="M874.382 1520.52 L883.039 1520.52 L904.11 1560.28 L904.11 1520.52 L910.348 1520.52 L910.348 1568.04 L901.691 1568.04 L880.62 1528.29 L880.62 1568.04 L874.382 1568.04 L874.382 1520.52 Z" fill="#000000" fill-rule="nonzero" fill-opacity="1" /><path clip-path="url(#clip020)" d="M922.284 1553.98 L922.284 1532.4 L928.14 1532.4 L928.14 1553.75 Q928.14 1558.81 930.114 1561.36 Q932.087 1563.87 936.034 1563.87 Q940.776 1563.87 943.513 1560.85 Q946.283 1557.83 946.283 1552.61 L946.283 1532.4 L952.139 1532.4 L952.139 1568.04 L946.283 1568.04 L946.283 1562.57 Q944.15 1565.82 941.317 1567.41 Q938.516 1568.97 934.792 1568.97 Q928.65 1568.97 925.467 1565.15 Q922.284 1561.33 922.284 1553.98 M937.02 1531.54 L937.02 1531.54 Z" fill="#000000" fill-rule="nonzero" fill-opacity="1" /><path clip-path="url(#clip020)" d="M991.956 1539.24 Q994.153 1535.29 997.208 1533.41 Q1000.26 1531.54 1004.4 1531.54 Q1009.97 1531.54 1013 1535.45 Q1016.02 1539.33 1016.02 1546.53 L1016.02 1568.04 L1010.13 1568.04 L1010.13 1546.72 Q1010.13 1541.59 1008.32 1539.11 Q1006.5 1536.63 1002.78 1536.63 Q998.227 1536.63 995.585 1539.65 Q992.943 1542.68 992.943 1547.9 L992.943 1568.04 L987.055 1568.04 L987.055 1546.72 Q987.055 1541.56 985.241 1539.11 Q983.426 1536.63 979.639 1536.63 Q975.151 1536.63 972.509 1539.68 Q969.867 1542.71 969.867 1547.9 L969.867 1568.04 L963.979 1568.04 L963.979 1532.4 L969.867 1532.4 L969.867 1537.93 Q971.873 1534.66 974.674 1533.1 Q977.474 1531.54 981.326 1531.54 Q985.209 1531.54 987.914 1533.51 Q990.652 1535.48 991.956 1539.24 Z" fill="#000000" fill-rule="nonzero" fill-opacity="1" /><path clip-path="url(#clip020)" d="M1053.29 1550.25 Q1053.29 1543.79 1050.62 1540.13 Q1047.97 1536.44 1043.33 1536.44 Q1038.68 1536.44 1036.01 1540.13 Q1033.37 1543.79 1033.37 1550.25 Q1033.37 1556.71 1036.01 1560.4 Q1038.68 1564.07 1043.33 1564.07 Q1047.97 1564.07 1050.62 1560.4 Q1053.29 1556.71 1053.29 1550.25 M1033.37 1537.81 Q1035.21 1534.62 1038.01 1533.1 Q1040.85 1531.54 1044.76 1531.54 Q1051.25 1531.54 1055.3 1536.69 Q1059.37 1541.85 1059.37 1550.25 Q1059.37 1558.65 1055.3 1563.81 Q1051.25 1568.97 1044.76 1568.97 Q1040.85 1568.97 1038.01 1567.44 Q1035.21 1565.88 1033.37 1562.7 L1033.37 1568.04 L1027.48 1568.04 L1027.48 1518.52 L1033.37 1518.52 L1033.37 1537.81 Z" fill="#000000" fill-rule="nonzero" fill-opacity="1" /><path clip-path="url(#clip020)" d="M1099.57 1548.76 L1099.57 1551.62 L1072.64 1551.62 Q1073.02 1557.67 1076.27 1560.85 Q1079.55 1564 1085.37 1564 Q1088.75 1564 1091.9 1563.17 Q1095.08 1562.35 1098.2 1560.69 L1098.2 1566.23 Q1095.05 1567.57 1091.74 1568.27 Q1088.43 1568.97 1085.02 1568.97 Q1076.49 1568.97 1071.5 1564 Q1066.53 1559.04 1066.53 1550.57 Q1066.53 1541.82 1071.24 1536.69 Q1075.98 1531.54 1084 1531.54 Q1091.2 1531.54 1095.37 1536.18 Q1099.57 1540.8 1099.57 1548.76 M1093.71 1547.04 Q1093.65 1542.23 1091.01 1539.37 Q1088.4 1536.5 1084.07 1536.5 Q1079.17 1536.5 1076.21 1539.27 Q1073.28 1542.04 1072.83 1547.07 L1093.71 1547.04 Z" fill="#000000" fill-rule="nonzero" fill-opacity="1" /><path clip-path="url(#clip020)" d="M1129.84 1537.87 Q1128.85 1537.3 1127.67 1537.04 Q1126.53 1536.76 1125.13 1536.76 Q1120.16 1536.76 1117.49 1540 Q1114.85 1543.22 1114.85 1549.27 L1114.85 1568.04 L1108.96 1568.04 L1108.96 1532.4 L1114.85 1532.4 L1114.85 1537.93 Q1116.69 1534.69 1119.65 1533.13 Q1122.61 1531.54 1126.85 1531.54 Q1127.45 1531.54 1128.18 1531.63 Q1128.91 1531.7 1129.81 1531.85 L1129.84 1537.87 Z" fill="#000000" fill-rule="nonzero" fill-opacity="1" /><path clip-path="url(#clip020)" d="M1170.51 1536.5 Q1165.8 1536.5 1163.07 1540.19 Q1160.33 1543.85 1160.33 1550.25 Q1160.33 1556.65 1163.03 1560.34 Q1165.77 1564 1170.51 1564 Q1175.19 1564 1177.93 1560.31 Q1180.67 1556.62 1180.67 1550.25 Q1180.67 1543.92 1177.93 1540.23 Q1175.19 1536.5 1170.51 1536.5 M1170.51 1531.54 Q1178.15 1531.54 1182.51 1536.5 Q1186.87 1541.47 1186.87 1550.25 Q1186.87 1559 1182.51 1564 Q1178.15 1568.97 1170.51 1568.97 Q1162.84 1568.97 1158.48 1564 Q1154.15 1559 1154.15 1550.25 Q1154.15 1541.47 1158.48 1536.5 Q1162.84 1531.54 1170.51 1531.54 Z" fill="#000000" fill-rule="nonzero" fill-opacity="1" /><path clip-path="url(#clip020)" d="M1214.63 1518.52 L1214.63 1523.39 L1209.03 1523.39 Q1205.88 1523.39 1204.63 1524.66 Q1203.43 1525.93 1203.43 1529.24 L1203.43 1532.4 L1213.07 1532.4 L1213.07 1536.95 L1203.43 1536.95 L1203.43 1568.04 L1197.54 1568.04 L1197.54 1536.95 L1191.94 1536.95 L1191.94 1532.4 L1197.54 1532.4 L1197.54 1529.91 Q1197.54 1523.96 1200.31 1521.26 Q1203.08 1518.52 1209.09 1518.52 L1214.63 1518.52 Z" fill="#000000" fill-rule="nonzero" fill-opacity="1" /><path clip-path="url(#clip020)" d="M1265.9 1533.76 L1265.9 1539.24 Q1263.42 1537.87 1260.91 1537.2 Q1258.42 1536.5 1255.88 1536.5 Q1250.18 1536.5 1247.03 1540.13 Q1243.88 1543.73 1243.88 1550.25 Q1243.88 1556.78 1247.03 1560.4 Q1250.18 1564 1255.88 1564 Q1258.42 1564 1260.91 1563.33 Q1263.42 1562.63 1265.9 1561.26 L1265.9 1566.68 Q1263.45 1567.82 1260.81 1568.39 Q1258.2 1568.97 1255.24 1568.97 Q1247.19 1568.97 1242.45 1563.91 Q1237.7 1558.85 1237.7 1550.25 Q1237.7 1541.53 1242.48 1536.53 Q1247.28 1531.54 1255.62 1531.54 Q1258.33 1531.54 1260.91 1532.11 Q1263.49 1532.65 1265.9 1533.76 Z" fill="#000000" fill-rule="nonzero" fill-opacity="1" /><path clip-path="url(#clip020)" d="M1289.9 1536.5 Q1285.19 1536.5 1282.46 1540.19 Q1279.72 1543.85 1279.72 1550.25 Q1279.72 1556.65 1282.42 1560.34 Q1285.16 1564 1289.9 1564 Q1294.58 1564 1297.32 1560.31 Q1300.06 1556.62 1300.06 1550.25 Q1300.06 1543.92 1297.32 1540.23 Q1294.58 1536.5 1289.9 1536.5 M1289.9 1531.54 Q1297.54 1531.54 1301.9 1536.5 Q1306.26 1541.47 1306.26 1550.25 Q1306.26 1559 1301.9 1564 Q1297.54 1568.97 1289.9 1568.97 Q1282.23 1568.97 1277.87 1564 Q1273.54 1559 1273.54 1550.25 Q1273.54 1541.47 1277.87 1536.5 Q1282.23 1531.54 1289.9 1531.54 Z" fill="#000000" fill-rule="nonzero" fill-opacity="1" /><path clip-path="url(#clip020)" d="M1315.37 1553.98 L1315.37 1532.4 L1321.22 1532.4 L1321.22 1553.75 Q1321.22 1558.81 1323.2 1561.36 Q1325.17 1563.87 1329.12 1563.87 Q1333.86 1563.87 1336.6 1560.85 Q1339.36 1557.83 1339.36 1552.61 L1339.36 1532.4 L1345.22 1532.4 L1345.22 1568.04 L1339.36 1568.04 L1339.36 1562.57 Q1337.23 1565.82 1334.4 1567.41 Q1331.6 1568.97 1327.87 1568.97 Q1321.73 1568.97 1318.55 1565.15 Q1315.37 1561.33 1315.37 1553.98 M1330.1 1531.54 L1330.1 1531.54 Z" fill="#000000" fill-rule="nonzero" fill-opacity="1" /><path clip-path="url(#clip020)" d="M1377.94 1537.87 Q1376.95 1537.3 1375.78 1537.04 Q1374.63 1536.76 1373.23 1536.76 Q1368.27 1536.76 1365.59 1540 Q1362.95 1543.22 1362.95 1549.27 L1362.95 1568.04 L1357.06 1568.04 L1357.06 1532.4 L1362.95 1532.4 L1362.95 1537.93 Q1364.8 1534.69 1367.76 1533.13 Q1370.72 1531.54 1374.95 1531.54 Q1375.55 1531.54 1376.29 1531.63 Q1377.02 1531.7 1377.91 1531.85 L1377.94 1537.87 Z" fill="#000000" fill-rule="nonzero" fill-opacity="1" /><path clip-path="url(#clip020)" d="M1406.81 1533.45 L1406.81 1538.98 Q1404.33 1537.71 1401.65 1537.07 Q1398.98 1536.44 1396.12 1536.44 Q1391.75 1536.44 1389.56 1537.77 Q1387.39 1539.11 1387.39 1541.79 Q1387.39 1543.82 1388.95 1545 Q1390.51 1546.15 1395.22 1547.2 L1397.23 1547.64 Q1403.47 1548.98 1406.08 1551.43 Q1408.72 1553.85 1408.72 1558.21 Q1408.72 1563.17 1404.77 1566.07 Q1400.86 1568.97 1393.98 1568.97 Q1391.12 1568.97 1388 1568.39 Q1384.91 1567.85 1381.47 1566.74 L1381.47 1560.69 Q1384.72 1562.38 1387.87 1563.24 Q1391.02 1564.07 1394.11 1564.07 Q1398.25 1564.07 1400.48 1562.66 Q1402.7 1561.23 1402.7 1558.65 Q1402.7 1556.27 1401.08 1554.99 Q1399.49 1553.72 1394.05 1552.54 L1392.01 1552.07 Q1386.57 1550.92 1384.15 1548.56 Q1381.73 1546.18 1381.73 1542.04 Q1381.73 1537.01 1385.29 1534.27 Q1388.86 1531.54 1395.41 1531.54 Q1398.66 1531.54 1401.53 1532.01 Q1404.39 1532.49 1406.81 1533.45 Z" fill="#000000" fill-rule="nonzero" fill-opacity="1" /><path clip-path="url(#clip020)" d="M1448.54 1548.76 L1448.54 1551.62 L1421.61 1551.62 Q1421.99 1557.67 1425.24 1560.85 Q1428.52 1564 1434.34 1564 Q1437.72 1564 1440.87 1563.17 Q1444.05 1562.35 1447.17 1560.69 L1447.17 1566.23 Q1444.02 1567.57 1440.71 1568.27 Q1437.4 1568.97 1433.99 1568.97 Q1425.46 1568.97 1420.46 1564 Q1415.5 1559.04 1415.5 1550.57 Q1415.5 1541.82 1420.21 1536.69 Q1424.95 1531.54 1432.97 1531.54 Q1440.17 1531.54 1444.34 1536.18 Q1448.54 1540.8 1448.54 1548.76 M1442.68 1547.04 Q1442.62 1542.23 1439.97 1539.37 Q1437.36 1536.5 1433.04 1536.5 Q1428.13 1536.5 1425.17 1539.27 Q1422.25 1542.04 1421.8 1547.07 L1442.68 1547.04 Z" fill="#000000" fill-rule="nonzero" fill-opacity="1" /><path clip-path="url(#clip020)" d="M1480.87 1533.45 L1480.87 1538.98 Q1478.39 1537.71 1475.72 1537.07 Q1473.04 1536.44 1470.18 1536.44 Q1465.82 1536.44 1463.62 1537.77 Q1461.46 1539.11 1461.46 1541.79 Q1461.46 1543.82 1463.02 1545 Q1464.58 1546.15 1469.29 1547.2 L1471.29 1547.64 Q1477.53 1548.98 1480.14 1551.43 Q1482.78 1553.85 1482.78 1558.21 Q1482.78 1563.17 1478.84 1566.07 Q1474.92 1568.97 1468.05 1568.97 Q1465.18 1568.97 1462.06 1568.39 Q1458.98 1567.85 1455.54 1566.74 L1455.54 1560.69 Q1458.79 1562.38 1461.94 1563.24 Q1465.09 1564.07 1468.17 1564.07 Q1472.31 1564.07 1474.54 1562.66 Q1476.77 1561.23 1476.77 1558.65 Q1476.77 1556.27 1475.15 1554.99 Q1473.55 1553.72 1468.11 1552.54 L1466.07 1552.07 Q1460.63 1550.92 1458.21 1548.56 Q1455.79 1546.18 1455.79 1542.04 Q1455.79 1537.01 1459.36 1534.27 Q1462.92 1531.54 1469.48 1531.54 Q1472.73 1531.54 1475.59 1532.01 Q1478.46 1532.49 1480.87 1533.45 Z" fill="#000000" fill-rule="nonzero" fill-opacity="1" /><path clip-path="url(#clip020)" d="M1518.62 1522.27 L1518.62 1532.4 L1530.69 1532.4 L1530.69 1536.95 L1518.62 1536.95 L1518.62 1556.3 Q1518.62 1560.66 1519.8 1561.9 Q1521.01 1563.14 1524.67 1563.14 L1530.69 1563.14 L1530.69 1568.04 L1524.67 1568.04 Q1517.89 1568.04 1515.31 1565.53 Q1512.73 1562.98 1512.73 1556.3 L1512.73 1536.95 L1508.44 1536.95 L1508.44 1532.4 L1512.73 1532.4 L1512.73 1522.27 L1518.62 1522.27 Z" fill="#000000" fill-rule="nonzero" fill-opacity="1" /><path clip-path="url(#clip020)" d="M1554.59 1550.12 Q1547.49 1550.12 1544.75 1551.75 Q1542.02 1553.37 1542.02 1557.29 Q1542.02 1560.4 1544.05 1562.25 Q1546.12 1564.07 1549.66 1564.07 Q1554.53 1564.07 1557.45 1560.63 Q1560.41 1557.16 1560.41 1551.43 L1560.41 1550.12 L1554.59 1550.12 M1566.27 1547.71 L1566.27 1568.04 L1560.41 1568.04 L1560.41 1562.63 Q1558.41 1565.88 1555.42 1567.44 Q1552.43 1568.97 1548.1 1568.97 Q1542.62 1568.97 1539.38 1565.91 Q1536.16 1562.82 1536.16 1557.67 Q1536.16 1551.65 1540.17 1548.6 Q1544.21 1545.54 1552.2 1545.54 L1560.41 1545.54 L1560.41 1544.97 Q1560.41 1540.93 1557.74 1538.73 Q1555.1 1536.5 1550.29 1536.5 Q1547.24 1536.5 1544.34 1537.23 Q1541.44 1537.97 1538.77 1539.43 L1538.77 1534.02 Q1541.99 1532.78 1545.01 1532.17 Q1548.03 1531.54 1550.9 1531.54 Q1558.63 1531.54 1562.45 1535.55 Q1566.27 1539.56 1566.27 1547.71 Z" fill="#000000" fill-rule="nonzero" fill-opacity="1" /><path clip-path="url(#clip020)" d="M1578.11 1518.52 L1584 1518.52 L1584 1547.77 L1601.47 1532.4 L1608.95 1532.4 L1590.05 1549.07 L1609.75 1568.04 L1602.11 1568.04 L1584 1550.63 L1584 1568.04 L1578.11 1568.04 L1578.11 1518.52 Z" fill="#000000" fill-rule="nonzero" fill-opacity="1" /><path clip-path="url(#clip020)" d="M1644.25 1548.76 L1644.25 1551.62 L1617.32 1551.62 Q1617.71 1557.67 1620.95 1560.85 Q1624.23 1564 1630.05 1564 Q1633.43 1564 1636.58 1563.17 Q1639.76 1562.35 1642.88 1560.69 L1642.88 1566.23 Q1639.73 1567.57 1636.42 1568.27 Q1633.11 1568.97 1629.7 1568.97 Q1621.17 1568.97 1616.18 1564 Q1611.21 1559.04 1611.21 1550.57 Q1611.21 1541.82 1615.92 1536.69 Q1620.67 1531.54 1628.69 1531.54 Q1635.88 1531.54 1640.05 1536.18 Q1644.25 1540.8 1644.25 1548.76 M1638.39 1547.04 Q1638.33 1542.23 1635.69 1539.37 Q1633.08 1536.5 1628.75 1536.5 Q1623.85 1536.5 1620.89 1539.27 Q1617.96 1542.04 1617.51 1547.07 L1638.39 1547.04 Z" fill="#000000" fill-rule="nonzero" fill-opacity="1" /><path clip-path="url(#clip020)" d="M1683.5 1546.53 L1683.5 1568.04 L1677.64 1568.04 L1677.64 1546.72 Q1677.64 1541.66 1675.67 1539.14 Q1673.69 1536.63 1669.75 1536.63 Q1665 1536.63 1662.27 1539.65 Q1659.53 1542.68 1659.53 1547.9 L1659.53 1568.04 L1653.64 1568.04 L1653.64 1532.4 L1659.53 1532.4 L1659.53 1537.93 Q1661.63 1534.72 1664.46 1533.13 Q1667.33 1531.54 1671.05 1531.54 Q1677.19 1531.54 1680.34 1535.36 Q1683.5 1539.14 1683.5 1546.53 Z" fill="#000000" fill-rule="nonzero" fill-opacity="1" /><polyline clip-path="url(#clip022)" style="stroke:#000000; stroke-linecap:round; stroke-linejoin:round; stroke-width:2; stroke-opacity:0.1; fill:none" points="205.121,1404.84 2352.76,1404.84 "/>
<polyline clip-path="url(#clip022)" style="stroke:#000000; stroke-linecap:round; stroke-linejoin:round; stroke-width:2; stroke-opacity:0.1; fill:none" points="205.121,1198.8 2352.76,1198.8 "/>
<polyline clip-path="url(#clip022)" style="stroke:#000000; stroke-linecap:round; stroke-linejoin:round; stroke-width:2; stroke-opacity:0.1; fill:none" points="205.121,992.762 2352.76,992.762 "/>
<polyline clip-path="url(#clip022)" style="stroke:#000000; stroke-linecap:round; stroke-linejoin:round; stroke-width:2; stroke-opacity:0.1; fill:none" points="205.121,786.722 2352.76,786.722 "/>
<polyline clip-path="url(#clip022)" style="stroke:#000000; stroke-linecap:round; stroke-linejoin:round; stroke-width:2; stroke-opacity:0.1; fill:none" points="205.121,580.682 2352.76,580.682 "/>
<polyline clip-path="url(#clip022)" style="stroke:#000000; stroke-linecap:round; stroke-linejoin:round; stroke-width:2; stroke-opacity:0.1; fill:none" points="205.121,374.642 2352.76,374.642 "/>
<polyline clip-path="url(#clip022)" style="stroke:#000000; stroke-linecap:round; stroke-linejoin:round; stroke-width:2; stroke-opacity:0.1; fill:none" points="205.121,168.602 2352.76,168.602 "/>
<polyline clip-path="url(#clip020)" style="stroke:#000000; stroke-linecap:round; stroke-linejoin:round; stroke-width:4; stroke-opacity:1; fill:none" points="205.121,1423.18 205.121,47.2441 "/>
<polyline clip-path="url(#clip020)" style="stroke:#000000; stroke-linecap:round; stroke-linejoin:round; stroke-width:4; stroke-opacity:1; fill:none" points="205.121,1404.84 224.019,1404.84 "/>
<polyline clip-path="url(#clip020)" style="stroke:#000000; stroke-linecap:round; stroke-linejoin:round; stroke-width:4; stroke-opacity:1; fill:none" points="205.121,1198.8 224.019,1198.8 "/>
<polyline clip-path="url(#clip020)" style="stroke:#000000; stroke-linecap:round; stroke-linejoin:round; stroke-width:4; stroke-opacity:1; fill:none" points="205.121,992.762 224.019,992.762 "/>
<polyline clip-path="url(#clip020)" style="stroke:#000000; stroke-linecap:round; stroke-linejoin:round; stroke-width:4; stroke-opacity:1; fill:none" points="205.121,786.722 224.019,786.722 "/>
<polyline clip-path="url(#clip020)" style="stroke:#000000; stroke-linecap:round; stroke-linejoin:round; stroke-width:4; stroke-opacity:1; fill:none" points="205.121,580.682 224.019,580.682 "/>
<polyline clip-path="url(#clip020)" style="stroke:#000000; stroke-linecap:round; stroke-linejoin:round; stroke-width:4; stroke-opacity:1; fill:none" points="205.121,374.642 224.019,374.642 "/>
<polyline clip-path="url(#clip020)" style="stroke:#000000; stroke-linecap:round; stroke-linejoin:round; stroke-width:4; stroke-opacity:1; fill:none" points="205.121,168.602 224.019,168.602 "/>
<path clip-path="url(#clip020)" d="M121.043 1418.19 L137.362 1418.19 L137.362 1422.12 L115.418 1422.12 L115.418 1418.19 Q118.08 1415.43 122.663 1410.8 Q127.269 1406.15 128.45 1404.81 Q130.695 1402.28 131.575 1400.55 Q132.478 1398.79 132.478 1397.1 Q132.478 1394.34 130.533 1392.61 Q128.612 1390.87 125.51 1390.87 Q123.311 1390.87 120.857 1391.64 Q118.427 1392.4 115.649 1393.95 L115.649 1389.23 Q118.473 1388.09 120.927 1387.52 Q123.38 1386.94 125.418 1386.94 Q130.788 1386.94 133.982 1389.62 Q137.177 1392.31 137.177 1396.8 Q137.177 1398.93 136.367 1400.85 Q135.579 1402.75 133.473 1405.34 Q132.894 1406.01 129.792 1409.23 Q126.691 1412.42 121.043 1418.19 Z" fill="#000000" fill-rule="nonzero" fill-opacity="1" /><path clip-path="url(#clip020)" d="M157.177 1390.64 Q153.566 1390.64 151.737 1394.21 Q149.931 1397.75 149.931 1404.88 Q149.931 1411.98 151.737 1415.55 Q153.566 1419.09 157.177 1419.09 Q160.811 1419.09 162.616 1415.55 Q164.445 1411.98 164.445 1404.88 Q164.445 1397.75 162.616 1394.21 Q160.811 1390.64 157.177 1390.64 M157.177 1386.94 Q162.987 1386.94 166.042 1391.54 Q169.121 1396.13 169.121 1404.88 Q169.121 1413.6 166.042 1418.21 Q162.987 1422.79 157.177 1422.79 Q151.366 1422.79 148.288 1418.21 Q145.232 1413.6 145.232 1404.88 Q145.232 1396.13 148.288 1391.54 Q151.366 1386.94 157.177 1386.94 Z" fill="#000000" fill-rule="nonzero" fill-opacity="1" /><path clip-path="url(#clip020)" d="M131.181 1197.45 Q134.538 1198.17 136.413 1200.43 Q138.311 1202.7 138.311 1206.04 Q138.311 1211.15 134.792 1213.95 Q131.274 1216.75 124.793 1216.75 Q122.617 1216.75 120.302 1216.31 Q118.01 1215.9 115.556 1215.04 L115.556 1210.53 Q117.501 1211.66 119.816 1212.24 Q122.13 1212.82 124.654 1212.82 Q129.052 1212.82 131.343 1211.08 Q133.658 1209.35 133.658 1206.04 Q133.658 1202.98 131.505 1201.27 Q129.376 1199.53 125.556 1199.53 L121.529 1199.53 L121.529 1195.69 L125.742 1195.69 Q129.191 1195.69 131.019 1194.32 Q132.848 1192.93 132.848 1190.34 Q132.848 1187.68 130.95 1186.27 Q129.075 1184.83 125.556 1184.83 Q123.635 1184.83 121.436 1185.25 Q119.237 1185.67 116.598 1186.55 L116.598 1182.38 Q119.26 1181.64 121.575 1181.27 Q123.913 1180.9 125.973 1180.9 Q131.297 1180.9 134.399 1183.33 Q137.501 1185.74 137.501 1189.86 Q137.501 1192.73 135.857 1194.72 Q134.214 1196.68 131.181 1197.45 Z" fill="#000000" fill-rule="nonzero" fill-opacity="1" /><path clip-path="url(#clip020)" d="M157.177 1184.6 Q153.566 1184.6 151.737 1188.17 Q149.931 1191.71 149.931 1198.84 Q149.931 1205.94 151.737 1209.51 Q153.566 1213.05 157.177 1213.05 Q160.811 1213.05 162.616 1209.51 Q164.445 1205.94 164.445 1198.84 Q164.445 1191.71 162.616 1188.17 Q160.811 1184.6 157.177 1184.6 M157.177 1180.9 Q162.987 1180.9 166.042 1185.5 Q169.121 1190.09 169.121 1198.84 Q169.121 1207.56 166.042 1212.17 Q162.987 1216.75 157.177 1216.75 Q151.366 1216.75 148.288 1212.17 Q145.232 1207.56 145.232 1198.84 Q145.232 1190.09 148.288 1185.5 Q151.366 1180.9 157.177 1180.9 Z" fill="#000000" fill-rule="nonzero" fill-opacity="1" /><path clip-path="url(#clip020)" d="M129.862 979.556 L118.056 998.005 L129.862 998.005 L129.862 979.556 M128.635 975.482 L134.515 975.482 L134.515 998.005 L139.445 998.005 L139.445 1001.89 L134.515 1001.89 L134.515 1010.04 L129.862 1010.04 L129.862 1001.89 L114.26 1001.89 L114.26 997.38 L128.635 975.482 Z" fill="#000000" fill-rule="nonzero" fill-opacity="1" /><path clip-path="url(#clip020)" d="M157.177 978.561 Q153.566 978.561 151.737 982.126 Q149.931 985.667 149.931 992.797 Q149.931 999.903 151.737 1003.47 Q153.566 1007.01 157.177 1007.01 Q160.811 1007.01 162.616 1003.47 Q164.445 999.903 164.445 992.797 Q164.445 985.667 162.616 982.126 Q160.811 978.561 157.177 978.561 M157.177 974.857 Q162.987 974.857 166.042 979.464 Q169.121 984.047 169.121 992.797 Q169.121 1001.52 166.042 1006.13 Q162.987 1010.71 157.177 1010.71 Q151.366 1010.71 148.288 1006.13 Q145.232 1001.52 145.232 992.797 Q145.232 984.047 148.288 979.464 Q151.366 974.857 157.177 974.857 Z" fill="#000000" fill-rule="nonzero" fill-opacity="1" /><path clip-path="url(#clip020)" d="M117.061 769.442 L135.417 769.442 L135.417 773.377 L121.343 773.377 L121.343 781.849 Q122.362 781.502 123.38 781.34 Q124.399 781.155 125.418 781.155 Q131.205 781.155 134.584 784.326 Q137.964 787.497 137.964 792.914 Q137.964 798.493 134.492 801.595 Q131.019 804.673 124.7 804.673 Q122.524 804.673 120.255 804.303 Q118.01 803.933 115.603 803.192 L115.603 798.493 Q117.686 799.627 119.908 800.183 Q122.13 800.738 124.607 800.738 Q128.612 800.738 130.95 798.632 Q133.288 796.525 133.288 792.914 Q133.288 789.303 130.95 787.197 Q128.612 785.09 124.607 785.09 Q122.732 785.09 120.857 785.507 Q119.006 785.923 117.061 786.803 L117.061 769.442 Z" fill="#000000" fill-rule="nonzero" fill-opacity="1" /><path clip-path="url(#clip020)" d="M157.177 772.521 Q153.566 772.521 151.737 776.085 Q149.931 779.627 149.931 786.757 Q149.931 793.863 151.737 797.428 Q153.566 800.97 157.177 800.97 Q160.811 800.97 162.616 797.428 Q164.445 793.863 164.445 786.757 Q164.445 779.627 162.616 776.085 Q160.811 772.521 157.177 772.521 M157.177 768.817 Q162.987 768.817 166.042 773.423 Q169.121 778.007 169.121 786.757 Q169.121 795.484 166.042 800.09 Q162.987 804.673 157.177 804.673 Q151.366 804.673 148.288 800.09 Q145.232 795.484 145.232 786.757 Q145.232 778.007 148.288 773.423 Q151.366 768.817 157.177 768.817 Z" fill="#000000" fill-rule="nonzero" fill-opacity="1" /><path clip-path="url(#clip020)" d="M127.593 578.818 Q124.445 578.818 122.593 580.971 Q120.765 583.124 120.765 586.874 Q120.765 590.601 122.593 592.777 Q124.445 594.93 127.593 594.93 Q130.742 594.93 132.57 592.777 Q134.422 590.601 134.422 586.874 Q134.422 583.124 132.57 580.971 Q130.742 578.818 127.593 578.818 M136.876 564.166 L136.876 568.425 Q135.117 567.592 133.311 567.152 Q131.529 566.712 129.769 566.712 Q125.14 566.712 122.686 569.837 Q120.255 572.962 119.908 579.281 Q121.274 577.268 123.334 576.203 Q125.394 575.115 127.871 575.115 Q133.08 575.115 136.089 578.286 Q139.121 581.434 139.121 586.874 Q139.121 592.198 135.973 595.416 Q132.825 598.633 127.593 598.633 Q121.598 598.633 118.427 594.05 Q115.256 589.443 115.256 580.717 Q115.256 572.522 119.144 567.661 Q123.033 562.777 129.584 562.777 Q131.343 562.777 133.126 563.124 Q134.931 563.471 136.876 564.166 Z" fill="#000000" fill-rule="nonzero" fill-opacity="1" /><path clip-path="url(#clip020)" d="M157.177 566.481 Q153.566 566.481 151.737 570.045 Q149.931 573.587 149.931 580.717 Q149.931 587.823 151.737 591.388 Q153.566 594.93 157.177 594.93 Q160.811 594.93 162.616 591.388 Q164.445 587.823 164.445 580.717 Q164.445 573.587 162.616 570.045 Q160.811 566.481 157.177 566.481 M157.177 562.777 Q162.987 562.777 166.042 567.383 Q169.121 571.967 169.121 580.717 Q169.121 589.443 166.042 594.05 Q162.987 598.633 157.177 598.633 Q151.366 598.633 148.288 594.05 Q145.232 589.443 145.232 580.717 Q145.232 571.967 148.288 567.383 Q151.366 562.777 157.177 562.777 Z" fill="#000000" fill-rule="nonzero" fill-opacity="1" /><path clip-path="url(#clip020)" d="M115.834 357.362 L138.056 357.362 L138.056 359.353 L125.51 391.922 L120.626 391.922 L132.431 361.297 L115.834 361.297 L115.834 357.362 Z" fill="#000000" fill-rule="nonzero" fill-opacity="1" /><path clip-path="url(#clip020)" d="M157.177 360.44 Q153.566 360.44 151.737 364.005 Q149.931 367.547 149.931 374.677 Q149.931 381.783 151.737 385.348 Q153.566 388.889 157.177 388.889 Q160.811 388.889 162.616 385.348 Q164.445 381.783 164.445 374.677 Q164.445 367.547 162.616 364.005 Q160.811 360.44 157.177 360.44 M157.177 356.737 Q162.987 356.737 166.042 361.343 Q169.121 365.927 169.121 374.677 Q169.121 383.403 166.042 388.01 Q162.987 392.593 157.177 392.593 Q151.366 392.593 148.288 388.01 Q145.232 383.403 145.232 374.677 Q145.232 365.927 148.288 361.343 Q151.366 356.737 157.177 356.737 Z" fill="#000000" fill-rule="nonzero" fill-opacity="1" /><path clip-path="url(#clip020)" d="M127.015 169.47 Q123.681 169.47 121.76 171.252 Q119.862 173.035 119.862 176.16 Q119.862 179.285 121.76 181.067 Q123.681 182.849 127.015 182.849 Q130.348 182.849 132.269 181.067 Q134.191 179.261 134.191 176.16 Q134.191 173.035 132.269 171.252 Q130.371 169.47 127.015 169.47 M122.339 167.479 Q119.33 166.738 117.64 164.678 Q115.973 162.618 115.973 159.655 Q115.973 155.512 118.913 153.104 Q121.876 150.697 127.015 150.697 Q132.177 150.697 135.117 153.104 Q138.056 155.512 138.056 159.655 Q138.056 162.618 136.367 164.678 Q134.7 166.738 131.714 167.479 Q135.093 168.266 136.968 170.558 Q138.867 172.849 138.867 176.16 Q138.867 181.183 135.788 183.868 Q132.732 186.553 127.015 186.553 Q121.297 186.553 118.218 183.868 Q115.163 181.183 115.163 176.16 Q115.163 172.849 117.061 170.558 Q118.959 168.266 122.339 167.479 M120.626 160.095 Q120.626 162.78 122.293 164.285 Q123.982 165.789 127.015 165.789 Q130.024 165.789 131.714 164.285 Q133.427 162.78 133.427 160.095 Q133.427 157.41 131.714 155.905 Q130.024 154.4 127.015 154.4 Q123.982 154.4 122.293 155.905 Q120.626 157.41 120.626 160.095 Z" fill="#000000" fill-rule="nonzero" fill-opacity="1" /><path clip-path="url(#clip020)" d="M157.177 154.4 Q153.566 154.4 151.737 157.965 Q149.931 161.507 149.931 168.636 Q149.931 175.743 151.737 179.308 Q153.566 182.849 157.177 182.849 Q160.811 182.849 162.616 179.308 Q164.445 175.743 164.445 168.636 Q164.445 161.507 162.616 157.965 Q160.811 154.4 157.177 154.4 M157.177 150.697 Q162.987 150.697 166.042 155.303 Q169.121 159.886 169.121 168.636 Q169.121 177.363 166.042 181.97 Q162.987 186.553 157.177 186.553 Q151.366 186.553 148.288 181.97 Q145.232 177.363 145.232 168.636 Q145.232 159.886 148.288 155.303 Q151.366 150.697 157.177 150.697 Z" fill="#000000" fill-rule="nonzero" fill-opacity="1" /><path clip-path="url(#clip020)" d="M57.2247 1061.18 L44.4614 1061.18 L44.4614 1071.69 L39.1779 1071.69 L39.1779 1054.82 L59.58 1054.82 Q62.2218 1058.54 63.5904 1063.03 Q64.9272 1067.52 64.9272 1072.61 Q64.9272 1083.75 58.4342 1090.05 Q51.9093 1096.32 40.2919 1096.32 Q28.6427 1096.32 22.1496 1090.05 Q15.6248 1083.75 15.6248 1072.61 Q15.6248 1067.96 16.7706 1063.79 Q17.9164 1059.59 20.1444 1056.06 L26.9876 1056.06 Q23.9639 1059.62 22.4361 1063.63 Q20.9083 1067.65 20.9083 1072.07 Q20.9083 1080.79 25.7781 1085.18 Q30.6479 1089.54 40.2919 1089.54 Q49.9041 1089.54 54.7739 1085.18 Q59.6436 1080.79 59.6436 1072.07 Q59.6436 1068.66 59.0707 1065.99 Q58.466 1063.32 57.2247 1061.18 Z" fill="#000000" fill-rule="nonzero" fill-opacity="1" /><path clip-path="url(#clip020)" d="M44.7161 1012.84 L47.5806 1012.84 L47.5806 1039.76 Q53.6281 1039.38 56.8109 1036.13 Q59.9619 1032.86 59.9619 1027.03 Q59.9619 1023.66 59.1344 1020.51 Q58.3069 1017.32 56.6518 1014.2 L62.1899 1014.2 Q63.5267 1017.36 64.227 1020.67 Q64.9272 1023.98 64.9272 1027.38 Q64.9272 1035.91 59.9619 1040.91 Q54.9967 1045.87 46.5303 1045.87 Q37.7774 1045.87 32.6531 1041.16 Q27.4968 1036.42 27.4968 1028.4 Q27.4968 1021.21 32.1438 1017.04 Q36.7589 1012.84 44.7161 1012.84 M42.9973 1018.69 Q38.1912 1018.76 35.3266 1021.4 Q32.4621 1024.01 32.4621 1028.34 Q32.4621 1033.24 35.2312 1036.2 Q38.0002 1039.13 43.0292 1039.57 L42.9973 1018.69 Z" fill="#000000" fill-rule="nonzero" fill-opacity="1" /><path clip-path="url(#clip020)" d="M42.4881 973.592 L64.0042 973.592 L64.0042 979.448 L42.679 979.448 Q37.6183 979.448 35.1038 981.422 Q32.5894 983.395 32.5894 987.342 Q32.5894 992.084 35.6131 994.821 Q38.6368 997.559 43.8567 997.559 L64.0042 997.559 L64.0042 1003.45 L28.3562 1003.45 L28.3562 997.559 L33.8944 997.559 Q30.6797 995.458 29.0883 992.625 Q27.4968 989.761 27.4968 986.037 Q27.4968 979.894 31.3163 976.743 Q35.1038 973.592 42.4881 973.592 Z" fill="#000000" fill-rule="nonzero" fill-opacity="1" /><path clip-path="url(#clip020)" d="M44.7161 931.419 L47.5806 931.419 L47.5806 958.346 Q53.6281 957.964 56.8109 954.717 Q59.9619 951.439 59.9619 945.614 Q59.9619 942.241 59.1344 939.09 Q58.3069 935.907 56.6518 932.788 L62.1899 932.788 Q63.5267 935.939 64.227 939.249 Q64.9272 942.559 64.9272 945.965 Q64.9272 954.495 59.9619 959.492 Q54.9967 964.457 46.5303 964.457 Q37.7774 964.457 32.6531 959.746 Q27.4968 955.004 27.4968 946.983 Q27.4968 939.79 32.1438 935.62 Q36.7589 931.419 44.7161 931.419 M42.9973 937.275 Q38.1912 937.339 35.3266 939.981 Q32.4621 942.591 32.4621 946.919 Q32.4621 951.821 35.2312 954.781 Q38.0002 957.709 43.0292 958.155 L42.9973 937.275 Z" fill="#000000" fill-rule="nonzero" fill-opacity="1" /><path clip-path="url(#clip020)" d="M33.8307 901.15 Q33.2578 902.137 33.0032 903.314 Q32.7167 904.46 32.7167 905.861 Q32.7167 910.826 35.9632 913.499 Q39.1779 916.141 45.2253 916.141 L64.0042 916.141 L64.0042 922.03 L28.3562 922.03 L28.3562 916.141 L33.8944 916.141 Q30.6479 914.295 29.0883 911.335 Q27.4968 908.375 27.4968 904.142 Q27.4968 903.537 27.5923 902.805 Q27.656 902.073 27.8151 901.182 L33.8307 901.15 Z" fill="#000000" fill-rule="nonzero" fill-opacity="1" /><path clip-path="url(#clip020)" d="M46.0847 878.806 Q46.0847 885.904 47.7079 888.641 Q49.3312 891.379 53.2461 891.379 Q56.3653 891.379 58.2114 889.342 Q60.0256 887.273 60.0256 883.74 Q60.0256 878.87 56.5881 875.942 Q53.1188 872.982 47.3897 872.982 L46.0847 872.982 L46.0847 878.806 M43.6657 867.125 L64.0042 867.125 L64.0042 872.982 L58.5933 872.982 Q61.8398 874.987 63.3994 877.979 Q64.9272 880.971 64.9272 885.299 Q64.9272 890.774 61.8716 894.02 Q58.7843 897.235 53.6281 897.235 Q47.6125 897.235 44.5569 893.225 Q41.5014 889.182 41.5014 881.194 L41.5014 872.982 L40.9285 872.982 Q36.8862 872.982 34.6901 875.655 Q32.4621 878.297 32.4621 883.103 Q32.4621 886.159 33.1941 889.055 Q33.9262 891.952 35.3903 894.625 L29.9795 894.625 Q28.7381 891.41 28.1334 888.387 Q27.4968 885.363 27.4968 882.499 Q27.4968 874.764 31.5072 870.945 Q35.5176 867.125 43.6657 867.125 Z" fill="#000000" fill-rule="nonzero" fill-opacity="1" /><path clip-path="url(#clip020)" d="M14.479 855.062 L14.479 849.206 L64.0042 849.206 L64.0042 855.062 L14.479 855.062 Z" fill="#000000" fill-rule="nonzero" fill-opacity="1" /><path clip-path="url(#clip020)" d="M14.479 816.231 L14.479 810.375 L64.0042 810.375 L64.0042 816.231 L14.479 816.231 Z" fill="#000000" fill-rule="nonzero" fill-opacity="1" /><path clip-path="url(#clip020)" d="M28.3562 798.121 L28.3562 792.265 L64.0042 792.265 L64.0042 798.121 L28.3562 798.121 M14.479 798.121 L14.479 792.265 L21.895 792.265 L21.895 798.121 L14.479 798.121 Z" fill="#000000" fill-rule="nonzero" fill-opacity="1" /><path clip-path="url(#clip020)" d="M14.479 761.964 L19.3487 761.964 L19.3487 767.566 Q19.3487 770.717 20.6219 771.958 Q21.895 773.167 25.2052 773.167 L28.3562 773.167 L28.3562 763.523 L32.9077 763.523 L32.9077 773.167 L64.0042 773.167 L64.0042 779.056 L32.9077 779.056 L32.9077 784.658 L28.3562 784.658 L28.3562 779.056 L25.8736 779.056 Q19.9216 779.056 17.2162 776.287 Q14.479 773.518 14.479 767.502 L14.479 761.964 Z" fill="#000000" fill-rule="nonzero" fill-opacity="1" /><path clip-path="url(#clip020)" d="M44.7161 726.571 L47.5806 726.571 L47.5806 753.497 Q53.6281 753.116 56.8109 749.869 Q59.9619 746.591 59.9619 740.766 Q59.9619 737.392 59.1344 734.241 Q58.3069 731.058 56.6518 727.939 L62.1899 727.939 Q63.5267 731.09 64.227 734.4 Q64.9272 737.711 64.9272 741.116 Q64.9272 749.646 59.9619 754.643 Q54.9967 759.609 46.5303 759.609 Q37.7774 759.609 32.6531 754.898 Q27.4968 750.155 27.4968 742.135 Q27.4968 734.941 32.1438 730.772 Q36.7589 726.571 44.7161 726.571 M42.9973 732.427 Q38.1912 732.491 35.3266 735.132 Q32.4621 737.742 32.4621 742.071 Q32.4621 746.973 35.2312 749.933 Q38.0002 752.861 43.0292 753.306 L42.9973 732.427 Z" fill="#000000" fill-rule="nonzero" fill-opacity="1" /><path clip-path="url(#clip020)" d="M42.4881 666.606 L64.0042 666.606 L64.0042 672.462 L42.679 672.462 Q37.6183 672.462 35.1038 674.435 Q32.5894 676.409 32.5894 680.355 Q32.5894 685.098 35.6131 687.835 Q38.6368 690.572 43.8567 690.572 L64.0042 690.572 L64.0042 696.461 L14.479 696.461 L14.479 690.572 L33.8944 690.572 Q30.6797 688.472 29.0883 685.639 Q27.4968 682.774 27.4968 679.051 Q27.4968 672.908 31.3163 669.757 Q35.1038 666.606 42.4881 666.606 Z" fill="#000000" fill-rule="nonzero" fill-opacity="1" /><path clip-path="url(#clip020)" d="M46.0847 638.724 Q46.0847 645.822 47.7079 648.559 Q49.3312 651.296 53.2461 651.296 Q56.3653 651.296 58.2114 649.259 Q60.0256 647.19 60.0256 643.657 Q60.0256 638.787 56.5881 635.859 Q53.1188 632.899 47.3897 632.899 L46.0847 632.899 L46.0847 638.724 M43.6657 627.043 L64.0042 627.043 L64.0042 632.899 L58.5933 632.899 Q61.8398 634.904 63.3994 637.896 Q64.9272 640.888 64.9272 645.217 Q64.9272 650.691 61.8716 653.938 Q58.7843 657.152 53.6281 657.152 Q47.6125 657.152 44.5569 653.142 Q41.5014 649.1 41.5014 641.111 L41.5014 632.899 L40.9285 632.899 Q36.8862 632.899 34.6901 635.573 Q32.4621 638.215 32.4621 643.021 Q32.4621 646.076 33.1941 648.973 Q33.9262 651.869 35.3903 654.543 L29.9795 654.543 Q28.7381 651.328 28.1334 648.304 Q27.4968 645.28 27.4968 642.416 Q27.4968 634.682 31.5072 630.862 Q35.5176 627.043 43.6657 627.043 Z" fill="#000000" fill-rule="nonzero" fill-opacity="1" /><path clip-path="url(#clip020)" d="M58.657 609.314 L77.5631 609.314 L77.5631 615.202 L28.3562 615.202 L28.3562 609.314 L33.7671 609.314 Q30.5842 607.468 29.0564 604.667 Q27.4968 601.835 27.4968 597.92 Q27.4968 591.427 32.6531 587.384 Q37.8093 583.31 46.212 583.31 Q54.6147 583.31 59.771 587.384 Q64.9272 591.427 64.9272 597.92 Q64.9272 601.835 63.3994 604.667 Q61.8398 607.468 58.657 609.314 M46.212 589.39 Q39.7508 589.39 36.0905 592.063 Q32.3984 594.705 32.3984 599.352 Q32.3984 603.999 36.0905 606.672 Q39.7508 609.314 46.212 609.314 Q52.6732 609.314 56.3653 606.672 Q60.0256 603.999 60.0256 599.352 Q60.0256 594.705 56.3653 592.063 Q52.6732 589.39 46.212 589.39 Z" fill="#000000" fill-rule="nonzero" fill-opacity="1" /><path clip-path="url(#clip020)" d="M58.657 567.937 L77.5631 567.937 L77.5631 573.825 L28.3562 573.825 L28.3562 567.937 L33.7671 567.937 Q30.5842 566.091 29.0564 563.29 Q27.4968 560.457 27.4968 556.542 Q27.4968 550.049 32.6531 546.007 Q37.8093 541.933 46.212 541.933 Q54.6147 541.933 59.771 546.007 Q64.9272 550.049 64.9272 556.542 Q64.9272 560.457 63.3994 563.29 Q61.8398 566.091 58.657 567.937 M46.212 548.012 Q39.7508 548.012 36.0905 550.686 Q32.3984 553.328 32.3984 557.975 Q32.3984 562.622 36.0905 565.295 Q39.7508 567.937 46.212 567.937 Q52.6732 567.937 56.3653 565.295 Q60.0256 562.622 60.0256 557.975 Q60.0256 553.328 56.3653 550.686 Q52.6732 548.012 46.212 548.012 Z" fill="#000000" fill-rule="nonzero" fill-opacity="1" /><path clip-path="url(#clip020)" d="M28.3562 532.225 L28.3562 526.369 L64.0042 526.369 L64.0042 532.225 L28.3562 532.225 M14.479 532.225 L14.479 526.369 L21.895 526.369 L21.895 532.225 L14.479 532.225 Z" fill="#000000" fill-rule="nonzero" fill-opacity="1" /><path clip-path="url(#clip020)" d="M42.4881 484.483 L64.0042 484.483 L64.0042 490.339 L42.679 490.339 Q37.6183 490.339 35.1038 492.313 Q32.5894 494.286 32.5894 498.233 Q32.5894 502.975 35.6131 505.712 Q38.6368 508.45 43.8567 508.45 L64.0042 508.45 L64.0042 514.338 L28.3562 514.338 L28.3562 508.45 L33.8944 508.45 Q30.6797 506.349 29.0883 503.516 Q27.4968 500.652 27.4968 496.928 Q27.4968 490.785 31.3163 487.634 Q35.1038 484.483 42.4881 484.483 Z" fill="#000000" fill-rule="nonzero" fill-opacity="1" /><path clip-path="url(#clip020)" d="M44.7161 442.31 L47.5806 442.31 L47.5806 469.237 Q53.6281 468.855 56.8109 465.608 Q59.9619 462.33 59.9619 456.505 Q59.9619 453.132 59.1344 449.981 Q58.3069 446.798 56.6518 443.679 L62.1899 443.679 Q63.5267 446.83 64.227 450.14 Q64.9272 453.45 64.9272 456.856 Q64.9272 465.386 59.9619 470.383 Q54.9967 475.348 46.5303 475.348 Q37.7774 475.348 32.6531 470.637 Q27.4968 465.895 27.4968 457.874 Q27.4968 450.681 32.1438 446.511 Q36.7589 442.31 44.7161 442.31 M42.9973 448.166 Q38.1912 448.23 35.3266 450.872 Q32.4621 453.482 32.4621 457.81 Q32.4621 462.712 35.2312 465.672 Q38.0002 468.6 43.0292 469.046 L42.9973 448.166 Z" fill="#000000" fill-rule="nonzero" fill-opacity="1" /><path clip-path="url(#clip020)" d="M29.4065 409.972 L34.9447 409.972 Q33.6716 412.455 33.035 415.128 Q32.3984 417.802 32.3984 420.666 Q32.3984 425.027 33.7352 427.223 Q35.072 429.388 37.7456 429.388 Q39.7826 429.388 40.9603 427.828 Q42.1061 426.268 43.1565 421.558 L43.6021 419.552 Q44.9389 413.314 47.3897 410.704 Q49.8086 408.062 54.1691 408.062 Q59.1344 408.062 62.0308 412.009 Q64.9272 415.924 64.9272 422.799 Q64.9272 425.664 64.3543 428.783 Q63.8132 431.87 62.6992 435.308 L56.6518 435.308 Q58.3387 432.061 59.198 428.91 Q60.0256 425.759 60.0256 422.672 Q60.0256 418.534 58.6251 416.306 Q57.1929 414.078 54.6147 414.078 Q52.2276 414.078 50.9545 415.701 Q49.6813 417.293 48.5037 422.735 L48.0262 424.772 Q46.8804 430.215 44.5251 432.634 Q42.138 435.053 38.0002 435.053 Q32.9713 435.053 30.2341 431.488 Q27.4968 427.923 27.4968 421.367 Q27.4968 418.12 27.9743 415.256 Q28.4517 412.391 29.4065 409.972 Z" fill="#000000" fill-rule="nonzero" fill-opacity="1" /><path clip-path="url(#clip020)" d="M29.4065 376.011 L34.9447 376.011 Q33.6716 378.494 33.035 381.167 Q32.3984 383.841 32.3984 386.705 Q32.3984 391.066 33.7352 393.262 Q35.072 395.426 37.7456 395.426 Q39.7826 395.426 40.9603 393.867 Q42.1061 392.307 43.1565 387.597 L43.6021 385.591 Q44.9389 379.353 47.3897 376.743 Q49.8086 374.101 54.1691 374.101 Q59.1344 374.101 62.0308 378.048 Q64.9272 381.963 64.9272 388.838 Q64.9272 391.703 64.3543 394.822 Q63.8132 397.909 62.6992 401.347 L56.6518 401.347 Q58.3387 398.1 59.198 394.949 Q60.0256 391.798 60.0256 388.711 Q60.0256 384.573 58.6251 382.345 Q57.1929 380.117 54.6147 380.117 Q52.2276 380.117 50.9545 381.74 Q49.6813 383.332 48.5037 388.774 L48.0262 390.811 Q46.8804 396.254 44.5251 398.673 Q42.138 401.092 38.0002 401.092 Q32.9713 401.092 30.2341 397.527 Q27.4968 393.962 27.4968 387.406 Q27.4968 384.159 27.9743 381.295 Q28.4517 378.43 29.4065 376.011 Z" fill="#000000" fill-rule="nonzero" fill-opacity="1" /><circle clip-path="url(#clip022)" cx="2147.25" cy="374.642" r="14.4" fill="#009af9" fill-rule="evenodd" fill-opacity="1" stroke="none"/>
<circle clip-path="url(#clip022)" cx="844.78" cy="1301.82" r="14.4" fill="#009af9" fill-rule="evenodd" fill-opacity="1" stroke="none"/>
<circle clip-path="url(#clip022)" cx="2002.54" cy="704.306" r="14.4" fill="#009af9" fill-rule="evenodd" fill-opacity="1" stroke="none"/>
<circle clip-path="url(#clip022)" cx="700.061" cy="1384.24" r="14.4" fill="#009af9" fill-rule="evenodd" fill-opacity="1" stroke="none"/>
<circle clip-path="url(#clip022)" cx="2291.97" cy="168.602" r="14.4" fill="#009af9" fill-rule="evenodd" fill-opacity="1" stroke="none"/>
<circle clip-path="url(#clip022)" cx="2147.25" cy="415.85" r="14.4" fill="#009af9" fill-rule="evenodd" fill-opacity="1" stroke="none"/>
<circle clip-path="url(#clip022)" cx="2002.54" cy="86.1857" r="14.4" fill="#009af9" fill-rule="evenodd" fill-opacity="1" stroke="none"/>
<circle clip-path="url(#clip022)" cx="1568.38" cy="539.474" r="14.4" fill="#009af9" fill-rule="evenodd" fill-opacity="1" stroke="none"/>
<circle clip-path="url(#clip022)" cx="1857.82" cy="642.494" r="14.4" fill="#009af9" fill-rule="evenodd" fill-opacity="1" stroke="none"/>
<circle clip-path="url(#clip022)" cx="1278.94" cy="992.762" r="14.4" fill="#009af9" fill-rule="evenodd" fill-opacity="1" stroke="none"/>
<circle clip-path="url(#clip022)" cx="2147.25" cy="580.682" r="14.4" fill="#009af9" fill-rule="evenodd" fill-opacity="1" stroke="none"/>
<circle clip-path="url(#clip022)" cx="1857.82" cy="498.266" r="14.4" fill="#009af9" fill-rule="evenodd" fill-opacity="1" stroke="none"/>
<circle clip-path="url(#clip022)" cx="1568.38" cy="889.742" r="14.4" fill="#009af9" fill-rule="evenodd" fill-opacity="1" stroke="none"/>
<circle clip-path="url(#clip022)" cx="555.342" cy="1033.97" r="14.4" fill="#009af9" fill-rule="evenodd" fill-opacity="1" stroke="none"/>
<circle clip-path="url(#clip022)" cx="989.5" cy="766.118" r="14.4" fill="#009af9" fill-rule="evenodd" fill-opacity="1" stroke="none"/>
<circle clip-path="url(#clip022)" cx="1278.94" cy="745.514" r="14.4" fill="#009af9" fill-rule="evenodd" fill-opacity="1" stroke="none"/>
<circle clip-path="url(#clip022)" cx="1713.1" cy="621.89" r="14.4" fill="#009af9" fill-rule="evenodd" fill-opacity="1" stroke="none"/>
<circle clip-path="url(#clip022)" cx="265.903" cy="1384.24" r="14.4" fill="#009af9" fill-rule="evenodd" fill-opacity="1" stroke="none"/>
<circle clip-path="url(#clip022)" cx="1568.38" cy="271.622" r="14.4" fill="#009af9" fill-rule="evenodd" fill-opacity="1" stroke="none"/>
<circle clip-path="url(#clip022)" cx="1278.94" cy="374.642" r="14.4" fill="#009af9" fill-rule="evenodd" fill-opacity="1" stroke="none"/>
<circle clip-path="url(#clip022)" cx="2147.25" cy="349.772" r="14.4" fill="#e26f46" fill-rule="evenodd" fill-opacity="1" stroke="none"/>
<circle clip-path="url(#clip022)" cx="844.78" cy="1035.55" r="14.4" fill="#e26f46" fill-rule="evenodd" fill-opacity="1" stroke="none"/>
<circle clip-path="url(#clip022)" cx="2002.54" cy="425.97" r="14.4" fill="#e26f46" fill-rule="evenodd" fill-opacity="1" stroke="none"/>
<circle clip-path="url(#clip022)" cx="700.061" cy="1111.75" r="14.4" fill="#e26f46" fill-rule="evenodd" fill-opacity="1" stroke="none"/>
<circle clip-path="url(#clip022)" cx="2291.97" cy="273.575" r="14.4" fill="#e26f46" fill-rule="evenodd" fill-opacity="1" stroke="none"/>
<circle clip-path="url(#clip022)" cx="2147.25" cy="349.772" r="14.4" fill="#e26f46" fill-rule="evenodd" fill-opacity="1" stroke="none"/>
<circle clip-path="url(#clip022)" cx="2002.54" cy="425.97" r="14.4" fill="#e26f46" fill-rule="evenodd" fill-opacity="1" stroke="none"/>
<circle clip-path="url(#clip022)" cx="1568.38" cy="654.564" r="14.4" fill="#e26f46" fill-rule="evenodd" fill-opacity="1" stroke="none"/>
<circle clip-path="url(#clip022)" cx="1857.82" cy="502.168" r="14.4" fill="#e26f46" fill-rule="evenodd" fill-opacity="1" stroke="none"/>
<circle clip-path="url(#clip022)" cx="1278.94" cy="806.96" r="14.4" fill="#e26f46" fill-rule="evenodd" fill-opacity="1" stroke="none"/>
<circle clip-path="url(#clip022)" cx="2147.25" cy="349.772" r="14.4" fill="#e26f46" fill-rule="evenodd" fill-opacity="1" stroke="none"/>
<circle clip-path="url(#clip022)" cx="1857.82" cy="502.168" r="14.4" fill="#e26f46" fill-rule="evenodd" fill-opacity="1" stroke="none"/>
<circle clip-path="url(#clip022)" cx="1568.38" cy="654.564" r="14.4" fill="#e26f46" fill-rule="evenodd" fill-opacity="1" stroke="none"/>
<circle clip-path="url(#clip022)" cx="555.342" cy="1187.95" r="14.4" fill="#e26f46" fill-rule="evenodd" fill-opacity="1" stroke="none"/>
<circle clip-path="url(#clip022)" cx="989.5" cy="959.355" r="14.4" fill="#e26f46" fill-rule="evenodd" fill-opacity="1" stroke="none"/>
<circle clip-path="url(#clip022)" cx="1278.94" cy="806.96" r="14.4" fill="#e26f46" fill-rule="evenodd" fill-opacity="1" stroke="none"/>
<circle clip-path="url(#clip022)" cx="1713.1" cy="578.366" r="14.4" fill="#e26f46" fill-rule="evenodd" fill-opacity="1" stroke="none"/>
<circle clip-path="url(#clip022)" cx="265.903" cy="1340.34" r="14.4" fill="#e26f46" fill-rule="evenodd" fill-opacity="1" stroke="none"/>
<circle clip-path="url(#clip022)" cx="1568.38" cy="654.564" r="14.4" fill="#e26f46" fill-rule="evenodd" fill-opacity="1" stroke="none"/>
<circle clip-path="url(#clip022)" cx="1278.94" cy="806.96" r="14.4" fill="#e26f46" fill-rule="evenodd" fill-opacity="1" stroke="none"/>
<polyline clip-path="url(#clip022)" style="stroke:#808080; stroke-linecap:round; stroke-linejoin:round; stroke-width:4; stroke-opacity:1; fill:none" stroke-dasharray="16, 10" points="2147.25,374.642 2147.25,349.772 "/>
<polyline clip-path="url(#clip022)" style="stroke:#808080; stroke-linecap:round; stroke-linejoin:round; stroke-width:4; stroke-opacity:1; fill:none" stroke-dasharray="16, 10" points="844.78,1301.82 844.78,1035.55 "/>
<polyline clip-path="url(#clip022)" style="stroke:#808080; stroke-linecap:round; stroke-linejoin:round; stroke-width:4; stroke-opacity:1; fill:none" stroke-dasharray="16, 10" points="2002.54,704.306 2002.54,425.97 "/>
<polyline clip-path="url(#clip022)" style="stroke:#808080; stroke-linecap:round; stroke-linejoin:round; stroke-width:4; stroke-opacity:1; fill:none" stroke-dasharray="16, 10" points="700.061,1384.24 700.061,1111.75 "/>
<polyline clip-path="url(#clip022)" style="stroke:#808080; stroke-linecap:round; stroke-linejoin:round; stroke-width:4; stroke-opacity:1; fill:none" stroke-dasharray="16, 10" points="2291.97,168.602 2291.97,273.575 "/>
<polyline clip-path="url(#clip022)" style="stroke:#808080; stroke-linecap:round; stroke-linejoin:round; stroke-width:4; stroke-opacity:1; fill:none" stroke-dasharray="16, 10" points="2147.25,415.85 2147.25,349.772 "/>
<polyline clip-path="url(#clip022)" style="stroke:#808080; stroke-linecap:round; stroke-linejoin:round; stroke-width:4; stroke-opacity:1; fill:none" stroke-dasharray="16, 10" points="2002.54,86.1857 2002.54,425.97 "/>
<polyline clip-path="url(#clip022)" style="stroke:#808080; stroke-linecap:round; stroke-linejoin:round; stroke-width:4; stroke-opacity:1; fill:none" stroke-dasharray="16, 10" points="1568.38,539.474 1568.38,654.564 "/>
<polyline clip-path="url(#clip022)" style="stroke:#808080; stroke-linecap:round; stroke-linejoin:round; stroke-width:4; stroke-opacity:1; fill:none" stroke-dasharray="16, 10" points="1857.82,642.494 1857.82,502.168 "/>
<polyline clip-path="url(#clip022)" style="stroke:#808080; stroke-linecap:round; stroke-linejoin:round; stroke-width:4; stroke-opacity:1; fill:none" stroke-dasharray="16, 10" points="1278.94,992.762 1278.94,806.96 "/>
<polyline clip-path="url(#clip022)" style="stroke:#808080; stroke-linecap:round; stroke-linejoin:round; stroke-width:4; stroke-opacity:1; fill:none" stroke-dasharray="16, 10" points="2147.25,580.682 2147.25,349.772 "/>
<polyline clip-path="url(#clip022)" style="stroke:#808080; stroke-linecap:round; stroke-linejoin:round; stroke-width:4; stroke-opacity:1; fill:none" stroke-dasharray="16, 10" points="1857.82,498.266 1857.82,502.168 "/>
<polyline clip-path="url(#clip022)" style="stroke:#808080; stroke-linecap:round; stroke-linejoin:round; stroke-width:4; stroke-opacity:1; fill:none" stroke-dasharray="16, 10" points="1568.38,889.742 1568.38,654.564 "/>
<polyline clip-path="url(#clip022)" style="stroke:#808080; stroke-linecap:round; stroke-linejoin:round; stroke-width:4; stroke-opacity:1; fill:none" stroke-dasharray="16, 10" points="555.342,1033.97 555.342,1187.95 "/>
<polyline clip-path="url(#clip022)" style="stroke:#808080; stroke-linecap:round; stroke-linejoin:round; stroke-width:4; stroke-opacity:1; fill:none" stroke-dasharray="16, 10" points="989.5,766.118 989.5,959.355 "/>
<polyline clip-path="url(#clip022)" style="stroke:#808080; stroke-linecap:round; stroke-linejoin:round; stroke-width:4; stroke-opacity:1; fill:none" stroke-dasharray="16, 10" points="1278.94,745.514 1278.94,806.96 "/>
<polyline clip-path="url(#clip022)" style="stroke:#808080; stroke-linecap:round; stroke-linejoin:round; stroke-width:4; stroke-opacity:1; fill:none" stroke-dasharray="16, 10" points="1713.1,621.89 1713.1,578.366 "/>
<polyline clip-path="url(#clip022)" style="stroke:#808080; stroke-linecap:round; stroke-linejoin:round; stroke-width:4; stroke-opacity:1; fill:none" stroke-dasharray="16, 10" points="265.903,1384.24 265.903,1340.34 "/>
<polyline clip-path="url(#clip022)" style="stroke:#808080; stroke-linecap:round; stroke-linejoin:round; stroke-width:4; stroke-opacity:1; fill:none" stroke-dasharray="16, 10" points="1568.38,271.622 1568.38,654.564 "/>
<polyline clip-path="url(#clip022)" style="stroke:#808080; stroke-linecap:round; stroke-linejoin:round; stroke-width:4; stroke-opacity:1; fill:none" stroke-dasharray="16, 10" points="1278.94,374.642 1278.94,806.96 "/>
<path clip-path="url(#clip020)" d="M276.709 248.629 L744.712 248.629 L744.712 93.1086 L276.709 93.1086  Z" fill="#ffffff" fill-rule="evenodd" fill-opacity="1"/>
<polyline clip-path="url(#clip020)" style="stroke:#000000; stroke-linecap:round; stroke-linejoin:round; stroke-width:4; stroke-opacity:1; fill:none" points="276.709,248.629 744.712,248.629 744.712,93.1086 276.709,93.1086 276.709,248.629 "/>
<circle clip-path="url(#clip020)" cx="372.159" cy="144.949" r="23.04" fill="#009af9" fill-rule="evenodd" fill-opacity="1" stroke="none"/>
<path clip-path="url(#clip020)" d="M472.286 131.511 L472.286 158.386 L477.934 158.386 Q485.086 158.386 488.397 155.145 Q491.73 151.905 491.73 144.914 Q491.73 137.969 488.397 134.752 Q485.086 131.511 477.934 131.511 L472.286 131.511 M467.61 127.669 L477.216 127.669 Q487.262 127.669 491.961 131.858 Q496.66 136.025 496.66 144.914 Q496.66 153.849 491.938 158.039 Q487.216 162.229 477.216 162.229 L467.61 162.229 L467.61 127.669 Z" fill="#000000" fill-rule="nonzero" fill-opacity="1" /><path clip-path="url(#clip020)" d="M515.711 149.196 Q510.549 149.196 508.559 150.377 Q506.568 151.557 506.568 154.405 Q506.568 156.673 508.049 158.016 Q509.554 159.335 512.123 159.335 Q515.665 159.335 517.795 156.835 Q519.947 154.312 519.947 150.145 L519.947 149.196 L515.711 149.196 M524.207 147.437 L524.207 162.229 L519.947 162.229 L519.947 158.293 Q518.489 160.655 516.313 161.789 Q514.137 162.9 510.989 162.9 Q507.008 162.9 504.647 160.678 Q502.309 158.432 502.309 154.682 Q502.309 150.307 505.225 148.085 Q508.165 145.863 513.975 145.863 L519.947 145.863 L519.947 145.446 Q519.947 142.507 518.003 140.909 Q516.082 139.289 512.586 139.289 Q510.364 139.289 508.258 139.821 Q506.151 140.354 504.207 141.419 L504.207 137.483 Q506.545 136.581 508.744 136.141 Q510.943 135.678 513.026 135.678 Q518.651 135.678 521.429 138.594 Q524.207 141.511 524.207 147.437 Z" fill="#000000" fill-rule="nonzero" fill-opacity="1" /><path clip-path="url(#clip020)" d="M537.193 128.942 L537.193 136.303 L545.966 136.303 L545.966 139.613 L537.193 139.613 L537.193 153.687 Q537.193 156.858 538.049 157.761 Q538.929 158.664 541.591 158.664 L545.966 158.664 L545.966 162.229 L541.591 162.229 Q536.66 162.229 534.785 160.4 Q532.91 158.548 532.91 153.687 L532.91 139.613 L529.785 139.613 L529.785 136.303 L532.91 136.303 L532.91 128.942 L537.193 128.942 Z" fill="#000000" fill-rule="nonzero" fill-opacity="1" /><path clip-path="url(#clip020)" d="M563.35 149.196 Q558.188 149.196 556.197 150.377 Q554.206 151.557 554.206 154.405 Q554.206 156.673 555.688 158.016 Q557.193 159.335 559.762 159.335 Q563.304 159.335 565.433 156.835 Q567.586 154.312 567.586 150.145 L567.586 149.196 L563.35 149.196 M571.845 147.437 L571.845 162.229 L567.586 162.229 L567.586 158.293 Q566.128 160.655 563.952 161.789 Q561.776 162.9 558.628 162.9 Q554.646 162.9 552.285 160.678 Q549.947 158.432 549.947 154.682 Q549.947 150.307 552.864 148.085 Q555.804 145.863 561.614 145.863 L567.586 145.863 L567.586 145.446 Q567.586 142.507 565.642 140.909 Q563.72 139.289 560.225 139.289 Q558.003 139.289 555.896 139.821 Q553.79 140.354 551.845 141.419 L551.845 137.483 Q554.183 136.581 556.382 136.141 Q558.581 135.678 560.665 135.678 Q566.29 135.678 569.067 138.594 Q571.845 141.511 571.845 147.437 Z" fill="#000000" fill-rule="nonzero" fill-opacity="1" /><circle clip-path="url(#clip020)" cx="372.159" cy="196.789" r="23.04" fill="#e26f46" fill-rule="evenodd" fill-opacity="1" stroke="none"/>
<path clip-path="url(#clip020)" d="M472.286 183.351 L472.286 196.337 L478.165 196.337 Q481.429 196.337 483.211 194.647 Q484.994 192.958 484.994 189.833 Q484.994 186.731 483.211 185.041 Q481.429 183.351 478.165 183.351 L472.286 183.351 M467.61 179.509 L478.165 179.509 Q483.975 179.509 486.938 182.147 Q489.924 184.763 489.924 189.833 Q489.924 194.948 486.938 197.564 Q483.975 200.18 478.165 200.18 L472.286 200.18 L472.286 214.069 L467.61 214.069 L467.61 179.509 Z" fill="#000000" fill-rule="nonzero" fill-opacity="1" /><path clip-path="url(#clip020)" d="M510.202 192.124 Q509.484 191.708 508.628 191.522 Q507.795 191.314 506.776 191.314 Q503.165 191.314 501.221 193.675 Q499.299 196.013 499.299 200.411 L499.299 214.069 L495.017 214.069 L495.017 188.143 L499.299 188.143 L499.299 192.171 Q500.642 189.809 502.795 188.675 Q504.947 187.518 508.026 187.518 Q508.466 187.518 508.998 187.587 Q509.531 187.634 510.179 187.749 L510.202 192.124 Z" fill="#000000" fill-rule="nonzero" fill-opacity="1" /><path clip-path="url(#clip020)" d="M535.804 200.041 L535.804 202.124 L516.221 202.124 Q516.498 206.522 518.859 208.837 Q521.244 211.129 525.48 211.129 Q527.933 211.129 530.225 210.527 Q532.54 209.925 534.808 208.721 L534.808 212.749 Q532.517 213.721 530.109 214.231 Q527.702 214.74 525.225 214.74 Q519.021 214.74 515.387 211.129 Q511.776 207.518 511.776 201.36 Q511.776 194.995 515.202 191.268 Q518.651 187.518 524.484 187.518 Q529.716 187.518 532.748 190.897 Q535.804 194.254 535.804 200.041 M531.545 198.791 Q531.498 195.296 529.577 193.212 Q527.679 191.129 524.531 191.129 Q520.966 191.129 518.813 193.143 Q516.683 195.157 516.359 198.814 L531.545 198.791 Z" fill="#000000" fill-rule="nonzero" fill-opacity="1" /><path clip-path="url(#clip020)" d="M559.855 192.078 L559.855 178.05 L564.114 178.05 L564.114 214.069 L559.855 214.069 L559.855 210.18 Q558.512 212.495 556.452 213.629 Q554.415 214.74 551.544 214.74 Q546.845 214.74 543.882 210.99 Q540.943 207.24 540.943 201.129 Q540.943 195.018 543.882 191.268 Q546.845 187.518 551.544 187.518 Q554.415 187.518 556.452 188.652 Q558.512 189.763 559.855 192.078 M545.341 201.129 Q545.341 205.828 547.262 208.513 Q549.206 211.175 552.586 211.175 Q555.966 211.175 557.91 208.513 Q559.855 205.828 559.855 201.129 Q559.855 196.43 557.91 193.768 Q555.966 191.083 552.586 191.083 Q549.206 191.083 547.262 193.768 Q545.341 196.43 545.341 201.129 Z" fill="#000000" fill-rule="nonzero" fill-opacity="1" /><path clip-path="url(#clip020)" d="M572.887 188.143 L577.146 188.143 L577.146 214.069 L572.887 214.069 L572.887 188.143 M572.887 178.05 L577.146 178.05 L577.146 183.444 L572.887 183.444 L572.887 178.05 Z" fill="#000000" fill-rule="nonzero" fill-opacity="1" /><path clip-path="url(#clip020)" d="M604.715 189.138 L604.715 193.12 Q602.91 192.124 601.081 191.638 Q599.276 191.129 597.424 191.129 Q593.28 191.129 590.989 193.768 Q588.697 196.384 588.697 201.129 Q588.697 205.874 590.989 208.513 Q593.28 211.129 597.424 211.129 Q599.276 211.129 601.081 210.643 Q602.91 210.133 604.715 209.138 L604.715 213.073 Q602.933 213.907 601.012 214.323 Q599.114 214.74 596.961 214.74 Q591.104 214.74 587.655 211.059 Q584.206 207.379 584.206 201.129 Q584.206 194.786 587.678 191.152 Q591.174 187.518 597.239 187.518 Q599.206 187.518 601.081 187.935 Q602.956 188.328 604.715 189.138 Z" fill="#000000" fill-rule="nonzero" fill-opacity="1" /><path clip-path="url(#clip020)" d="M616.336 180.782 L616.336 188.143 L625.109 188.143 L625.109 191.453 L616.336 191.453 L616.336 205.527 Q616.336 208.698 617.192 209.601 Q618.072 210.504 620.734 210.504 L625.109 210.504 L625.109 214.069 L620.734 214.069 Q615.803 214.069 613.928 212.24 Q612.053 210.388 612.053 205.527 L612.053 191.453 L608.928 191.453 L608.928 188.143 L612.053 188.143 L612.053 180.782 L616.336 180.782 Z" fill="#000000" fill-rule="nonzero" fill-opacity="1" /><path clip-path="url(#clip020)" d="M630.711 188.143 L634.97 188.143 L634.97 214.069 L630.711 214.069 L630.711 188.143 M630.711 178.05 L634.97 178.05 L634.97 183.444 L630.711 183.444 L630.711 178.05 Z" fill="#000000" fill-rule="nonzero" fill-opacity="1" /><path clip-path="url(#clip020)" d="M653.928 191.129 Q650.502 191.129 648.511 193.814 Q646.521 196.476 646.521 201.129 Q646.521 205.782 648.488 208.467 Q650.479 211.129 653.928 211.129 Q657.331 211.129 659.322 208.444 Q661.312 205.758 661.312 201.129 Q661.312 196.522 659.322 193.837 Q657.331 191.129 653.928 191.129 M653.928 187.518 Q659.484 187.518 662.655 191.129 Q665.826 194.74 665.826 201.129 Q665.826 207.495 662.655 211.129 Q659.484 214.74 653.928 214.74 Q648.349 214.74 645.178 211.129 Q642.03 207.495 642.03 201.129 Q642.03 194.74 645.178 191.129 Q648.349 187.518 653.928 187.518 Z" fill="#000000" fill-rule="nonzero" fill-opacity="1" /><path clip-path="url(#clip020)" d="M694.437 198.421 L694.437 214.069 L690.178 214.069 L690.178 198.559 Q690.178 194.879 688.743 193.05 Q687.308 191.222 684.437 191.222 Q680.988 191.222 678.997 193.421 Q677.007 195.62 677.007 199.416 L677.007 214.069 L672.724 214.069 L672.724 188.143 L677.007 188.143 L677.007 192.171 Q678.534 189.833 680.595 188.675 Q682.678 187.518 685.386 187.518 Q689.854 187.518 692.146 190.296 Q694.437 193.05 694.437 198.421 Z" fill="#000000" fill-rule="nonzero" fill-opacity="1" /><path clip-path="url(#clip020)" d="M719.46 188.907 L719.46 192.934 Q717.655 192.009 715.71 191.546 Q713.766 191.083 711.682 191.083 Q708.511 191.083 706.914 192.055 Q705.34 193.027 705.34 194.971 Q705.34 196.453 706.474 197.309 Q707.608 198.143 711.034 198.907 L712.493 199.231 Q717.03 200.203 718.928 201.985 Q720.849 203.745 720.849 206.916 Q720.849 210.527 717.979 212.633 Q715.132 214.74 710.132 214.74 Q708.048 214.74 705.78 214.323 Q703.534 213.93 701.034 213.12 L701.034 208.721 Q703.395 209.948 705.687 210.573 Q707.979 211.175 710.224 211.175 Q713.233 211.175 714.854 210.157 Q716.474 209.115 716.474 207.24 Q716.474 205.504 715.294 204.578 Q714.136 203.652 710.178 202.796 L708.696 202.448 Q704.738 201.615 702.979 199.902 Q701.22 198.166 701.22 195.157 Q701.22 191.499 703.812 189.509 Q706.405 187.518 711.173 187.518 Q713.534 187.518 715.618 187.865 Q717.701 188.212 719.46 188.907 Z" fill="#000000" fill-rule="nonzero" fill-opacity="1" /></svg>
